<svg width="4327" height="4327" viewBox="0 0 4327 4327" fill="none" xmlns="http://www.w3.org/2000/svg">
<rect width="4327" height="4327" rx="710" fill="#F6F6F6"/>
<path d="M1054.03 2767.02C923.105 2767.02 817.795 2737.13 738.1 2677.36C659.829 2616.17 620.693 2529.36 620.693 2416.93C620.693 2301.66 659.117 2214.14 735.966 2154.37C812.814 2093.18 924.528 2062.58 1071.11 2062.58C1123.76 2062.58 1177.13 2068.27 1231.21 2079.66C1285.29 2091.04 1330.83 2105.27 1367.83 2122.35V2103.14C1367.83 2056.17 1344.35 2020.6 1297.38 1996.4C1251.84 1972.21 1187.8 1960.11 1105.26 1960.11C981.453 1960.11 867.604 1985.02 763.716 2034.83V1753.05C810.679 1730.28 871.873 1712.49 947.298 1699.69C1022.72 1685.45 1103.13 1678.34 1188.52 1678.34C1386.33 1678.34 1537.18 1716.05 1641.07 1791.48C1744.95 1866.9 1796.9 1973.63 1796.9 2111.68V2735H1393.44V2653.88C1359.29 2688.04 1312.33 2715.08 1252.56 2735C1192.78 2756.35 1126.61 2767.02 1054.03 2767.02ZM1186.38 2519.4C1224.81 2519.4 1260.38 2512.28 1293.11 2498.05C1325.85 2483.82 1350.75 2465.32 1367.83 2442.55V2363.57C1315.17 2329.41 1255.4 2312.34 1188.52 2312.34C1148.67 2312.34 1117.36 2321.59 1094.59 2340.09C1073.24 2358.59 1062.57 2384.2 1062.57 2416.93C1062.57 2448.24 1073.24 2473.15 1094.59 2491.65C1115.94 2510.15 1146.53 2519.4 1186.38 2519.4ZM1957.95 1710.36H2352.86V1808.55C2392.71 1767.28 2438.96 1735.26 2491.61 1712.49C2545.69 1689.72 2604.04 1678.34 2666.66 1678.34C2742.08 1678.34 2801.85 1689.01 2845.97 1710.36C2891.51 1730.28 2929.93 1761.59 2961.24 1804.28C3003.94 1764.44 3054.46 1733.84 3112.8 1712.49C3172.57 1689.72 3233.06 1678.34 3294.25 1678.34C3432.29 1678.34 3529.78 1713.92 3586.7 1785.07C3645.05 1854.8 3674.22 1956.56 3674.22 2090.33V2735H3266.5V2152.24C3266.5 2102.43 3257.25 2066.85 3238.75 2045.5C3221.67 2022.73 3191.79 2011.35 3149.09 2011.35C3100.71 2011.35 3061.57 2026.29 3031.69 2056.17V2735H2623.96V2133.02C2623.96 2090.33 2616.14 2059.73 2600.48 2041.23C2584.83 2021.31 2557.79 2011.35 2519.37 2011.35C2458.17 2011.35 2407.65 2044.79 2367.8 2111.68V2735H1957.95V1710.36Z" fill="black"/>
</svg>
